HIERARCHY
ROOT Hips
{
 OFFSET 0.000000 0.000000 0.000000
 CHANNELS 6 Xposition Yposition Zposition Yrotation Xrotation Zrotation
 JOINT Chest
 {
  OFFSET 0.000000 9.585900 0.002600
  CHANNELS 3 Yrotation Xrotation Zrotation
  JOINT Chest2
  {
   OFFSET 0.000000 9.601200 -0.005300
   CHANNELS 3 Yrotation Xrotation Zrotation
   JOINT Chest3
   {
    OFFSET 0.000000 9.561800 0.000000
    CHANNELS 3 Yrotation Xrotation Zrotation
    JOINT Chest4
    {
     OFFSET 0.000000 9.552100 0.000000
     CHANNELS 3 Yrotation Xrotation Zrotation
     JOINT Neck
     {
      OFFSET 0.000000 14.453000 0.000000
      CHANNELS 3 Yrotation Xrotation Zrotation
      JOINT Head
      {
       OFFSET 0.000000 8.936500 -0.011300
       CHANNELS 3 Yrotation Xrotation Zrotation
       End Site
       {
        OFFSET 0.000000 17.073600 -0.006000
       }
      }
     }
     JOINT RightCollar
     {
      OFFSET -2.921100 9.558500 0.000000
      CHANNELS 3 Yrotation Xrotation Zrotation
      JOINT RightShoulder
      {
       OFFSET -13.519700 0.000000 0.000000
       CHANNELS 3 Yrotation Xrotation Zrotation
       JOINT RightElbow
       {
        OFFSET 0.000000 -29.696600 0.000000
        CHANNELS 3 Yrotation Xrotation Zrotation
        JOINT RightWrist
        {
         OFFSET 0.000000 -24.004700 0.000000
         CHANNELS 3 Yrotation Xrotation Zrotation
         End Site
         {
          OFFSET 0.000000 -17.728500 0.000000
         }
        }
       }
      }
     }
     JOINT LeftCollar
     {
      OFFSET 2.921100 9.558500 0.000000
      CHANNELS 3 Yrotation Xrotation Zrotation
      JOINT LeftShoulder
      {
       OFFSET 13.519700 0.000000 0.000000
       CHANNELS 3 Yrotation Xrotation Zrotation
       JOINT LeftElbow
       {
        OFFSET 0.000000 -29.696600 0.000000
        CHANNELS 3 Yrotation Xrotation Zrotation
        JOINT LeftWrist
        {
         OFFSET 0.000000 -24.004700 0.000000
         CHANNELS 3 Yrotation Xrotation Zrotation
         End Site
         {
          OFFSET 0.000000 -17.728500 0.000000
         }
        }
       }
      }
     }
    }
   }
  }
 }
 JOINT RightHip
 {
  OFFSET -7.771700 -0.012900 -0.001300
  CHANNELS 3 Yrotation Xrotation Zrotation
  JOINT RightKnee
  {
   OFFSET 0.000000 -40.869800 0.001200
   CHANNELS 3 Yrotation Xrotation Zrotation
   JOINT RightAnkle
   {
    OFFSET 0.000000 -39.717900 0.002100
    CHANNELS 3 Yrotation Xrotation Zrotation
    JOINT RightToe
    {
     OFFSET 0.000000 -4.965400 11.033500
     CHANNELS 3 Yrotation Xrotation Zrotation
     End Site
     {
      OFFSET 0.000000 -1.423100 5.872300
     }
    }
   }
  }
 }
 JOINT LeftHip
 {
  OFFSET 7.771700 -0.012900 -0.001300
  CHANNELS 3 Yrotation Xrotation Zrotation
  JOINT LeftKnee
  {
   OFFSET 0.000000 -40.869800 0.001200
   CHANNELS 3 Yrotation Xrotation Zrotation
   JOINT LeftAnkle
   {
    OFFSET 0.000000 -39.717900 0.002100
    CHANNELS 3 Yrotation Xrotation Zrotation
    JOINT LeftToe
    {
     OFFSET 0.000000 -4.965400 11.033500
     CHANNELS 3 Yrotation Xrotation Zrotation
     End Site
     {
      OFFSET 0.000000 -1.423100 5.872300
     }
    }
   }
  }
 }
}
MOTION
Frames: 9
Frame Time: 0.008333
0.000000 85.388000 0.000000 0.000000 -5.767877 0.000000 0.000000 11.653817 0.000000 0.000000 -5.885947 0.000000 0.000000 -0.000000 0.000000 0.000000 -0.000000 0.000000 0.000000 12.528835 0.000000 0.000000 0.711642 0.000000 0.000000 -0.000000 0.000000 0.000000 0.000000 -90.000000 0.000000 -2.309062 0.000000 0.000000 2.309062 0.000000 0.000000 -0.000000 0.000000 0.000000 -0.000000 90.000000 0.000000 -2.309062 0.000000 0.000000 2.309062 0.000000 0.000000 8.520406 0.000000 0.000000 1.905762 0.000000 -0.000000 -4.658285 0.000000 0.000000 -0.000000 0.000000 0.000000 8.520406 0.000000 0.000000 1.905762 0.000000 -0.000000 -4.658285 0.000000 0.000000 -0.000000 0.000000
-17.442615 55.542080 38.316558 178.703658 -27.979046 -9.322967 -6.461480 5.631680 5.044455 -3.596571 3.148041 2.579311 -4.490338 3.998469 3.170111 -3.598694 3.158793 2.575370 12.519048 31.692173 -0.152620 14.429470 11.264099 -2.963310 2.751157 -0.659149 -4.021837 5.206621 -16.842993 8.194723 10.851479 -39.630421 -1.390296 12.979739 -2.581650 -10.895665 -7.082452 2.332574 -5.724395 10.256834 3.477881 -1.961160 -39.209906 -48.874204 44.253523 6.550591 -23.080753 1.178175 -17.031823 -39.152359 5.805463 24.954186 84.381530 18.805947 -2.724869 -15.005470 4.581791 -0.051584 0.526593 -0.030003 -16.616129 -48.954824 17.407510 174.430082 80.895293 169.118337 -2.663317 -17.330728 1.160003 -0.017012 -0.503106 -0.031561
-17.440126 55.533260 38.318027 178.711539 -27.978398 -9.311106 -6.458757 5.593680 5.053859 -3.591484 3.128672 2.586808 -4.501025 4.007636 3.158430 -3.563460 3.083621 2.620113 12.444806 31.752161 -0.190735 14.379850 11.161661 -2.991268 2.798503 -0.571579 -3.982496 5.151722 -16.815673 8.133858 10.949329 -39.677310 -1.414301 12.976721 -2.588521 -10.890166 -7.097842 2.365647 -5.758535 10.276412 3.428671 -1.926192 -39.294442 -48.894514 44.280281 6.611603 -23.075313 1.169211 -17.023999 -39.170183 5.787714 25.148359 84.396323 18.990800 -2.678880 -15.018472 4.575817 -0.017350 0.529202 -0.027318 -16.667117 -48.959782 17.408997 174.359195 80.883305 169.030585 -2.645026 -17.326210 1.145468 -0.028405 -0.503049 -0.034850
-17.435888 55.523594 38.320551 178.711636 -27.985496 -9.303149 -6.445981 5.561440 5.068679 -3.584665 3.114799 2.593906 -4.469205 3.934488 3.201812 -3.574159 3.099734 2.605032 12.376824 31.710094 -0.225812 14.314102 11.136202 -3.008199 2.841285 -0.490108 -3.947512 5.085134 -16.789887 8.083528 11.011029 -39.738206 -1.404573 12.956289 -2.611827 -10.910934 -7.130732 2.402989 -5.797266 10.305935 3.363898 -1.879893 -39.355465 -48.944774 44.283573 6.675275 -23.062582 1.141501 -17.010618 -39.181181 5.778833 25.354312 84.410956 19.190900 -2.643631 -15.029465 4.561031 -0.050400 0.531875 -0.017536 -16.722414 -48.958575 17.412068 174.262791 80.868571 168.932570 -2.637240 -17.319347 1.122178 -0.019200 -0.506531 -0.045408
-17.431749 55.513218 38.324742 178.712507 -27.997411 -9.294556 -6.438700 5.552725 5.069909 -3.564783 3.089910 2.611475 -4.449062 3.908741 3.221556 -3.575812 3.107276 2.600846 12.314797 31.637275 -0.261112 14.239048 11.095317 -3.029774 2.888787 -0.436496 -3.906426 5.002144 -16.770989 8.048672 11.045535 -39.811341 -1.371264 12.922592 -2.645357 -10.935499 -7.181898 2.431713 -5.835340 10.334910 3.297745 -1.827680 -39.412533 -49.032462 44.313011 6.741520 -23.046931 1.099390 -16.973067 -39.192047 5.773966 25.344515 84.435402 19.182251 -2.656328 -15.027904 4.570145 -0.046233 0.527585 -0.011258 -16.841911 -48.942527 17.432736 174.094427 80.851674 168.743627 -2.600895 -17.313363 1.053927 -0.014968 -0.509265 -0.048696
-17.428006 55.503592 38.329167 178.717872 -28.025756 -9.287425 -6.431898 5.560543 5.068187 -3.541581 3.071376 2.626099 -4.461983 3.921192 3.213683 -3.535506 3.092488 2.624261 12.239654 31.587282 -0.302592 14.155818 11.016857 -3.062010 2.930421 -0.388366 -3.867805 4.907366 -16.754072 8.025904 11.066472 -39.898584 -1.331946 12.880393 -2.680503 -10.949537 -7.204660 2.404424 -5.841672 10.316237 3.301185 -1.803916 -39.478176 -49.137186 44.372568 6.806715 -23.029743 1.058430 -16.937652 -39.185202 5.760940 25.407683 84.454483 19.246146 -2.675977 -15.028702 4.578576 -0.053043 0.526368 -0.008693 -16.924947 -48.912737 17.448980 173.992832 80.839316 168.613285 -2.579103 -17.308830 1.014022 -0.024630 -0.506880 -0.043600
-17.422429 55.498014 38.329882 178.724527 -28.100752 -9.295208 -6.406810 5.599444 5.083357 -3.527868 3.070943 2.629840 -4.476220 3.933659 3.208291 -3.489384 3.087963 2.645225 12.156015 31.535759 -0.346427 14.062792 10.935134 -3.095049 2.969451 -0.346197 -3.828142 4.814123 -16.729721 8.005351 11.078060 -40.000738 -1.299290 12.835032 -2.714612 -10.948959 -7.189002 2.342537 -5.839759 10.238965 3.369861 -1.807166 -39.581357 -49.251021 44.501380 6.868634 -23.016754 1.025003 -16.902655 -39.122183 5.741588 25.387448 84.468278 19.234071 -2.680437 -15.030184 4.579416 -0.062922 0.525283 -0.008175 -16.941716 -48.839394 17.424227 174.008830 80.831804 168.638946 -2.545343 -17.312395 0.975334 -0.021717 -0.504115 -0.038660
-17.418239 55.489306 38.340263 178.728816 -28.129246 -9.299475 -6.388382 5.590061 5.095824 -3.508724 3.072944 2.636947 -4.431464 3.927212 3.235078 -3.502348 3.104492 2.635637 12.065930 31.487633 -0.390599 13.962266 10.857156 -3.126866 3.008460 -0.309181 -3.784074 4.719805 -16.720890 7.954165 11.062297 -40.091737 -1.230332 12.797207 -2.747656 -10.941267 -7.204814 2.306019 -5.854410 10.225427 3.298044 -1.710846 -39.569090 -49.331260 44.429075 6.931051 -23.011124 0.994288 -16.892026 -39.109445 5.748010 25.276967 84.481607 19.132066 -2.721341 -15.024829 4.582151 -0.045174 0.530293 -0.006369 -16.980771 -48.818579 17.420226 173.987685 80.828868 168.626399 -2.519659 -17.306055 0.939052 -0.018984 -0.498012 -0.034830
-17.414473 55.485067 38.347020 178.740570 -28.200972 -9.309122 -6.339937 5.573189 5.118744 -3.543750 3.139047 2.619654 -4.423381 3.931188 3.240334 -3.448022 3.105290 2.651055 11.971936 31.444473 -0.433575 13.857149 10.785451 -3.156273 3.045319 -0.276565 -3.734071 4.676535 -16.661028 7.926793 11.064329 -40.224264 -1.237207 12.770725 -2.775643 -10.936903 -7.237323 2.284844 -5.869638 10.213146 3.241674 -1.643331 -39.609755 -49.414524 44.431454 6.993030 -23.010819 0.966367 -16.872301 -39.046690 5.726228 25.307113 84.482862 19.165851 -2.703143 -15.026261 4.569811 -0.038656 0.533827 -0.007427 -17.032099 -48.745606 17.406378 173.958828 80.827652 168.597406 -2.485642 -17.296624 0.895001 -0.023139 -0.497444 -0.027534
